<svg xmlns="http://www.w3.org/2000/svg" xmlns:xlink="http://www.w3.org/1999/xlink" version="1.1" x="0px" y="0px" viewBox="0 0 100 125" enable-background="new 0 0 100 100" xml:space="preserve"><path d="M78.232,27.042h-8.05c-0.966,0-1.75,0.784-1.75,1.75c0,0.967,0.784,1.75,1.75,1.75h8.05c0.965,0,1.75,0.785,1.75,1.75V43.2  H20.016V32.292c0-0.965,0.785-1.75,1.75-1.75h9.218c0.967,0,1.75-0.783,1.75-1.75c0-0.966-0.783-1.75-1.75-1.75h-9.218  c-2.895,0-5.25,2.355-5.25,5.25v47.424c0,2.895,2.355,5.25,5.25,5.25h56.467c2.896,0,5.25-2.355,5.25-5.25V32.292  C83.482,29.397,81.128,27.042,78.232,27.042z M79.982,79.717c0,0.965-0.785,1.75-1.75,1.75H21.766c-0.965,0-1.75-0.785-1.75-1.75  V46.7h59.967V79.717z M42.883,30.542h14c0.967,0,1.75-0.783,1.75-1.75c0-0.966-0.783-1.75-1.75-1.75h-14  c-0.966,0-1.75,0.784-1.75,1.75C41.133,29.759,41.917,30.542,42.883,30.542z M36.575,39.998c1.998,0,3.624-1.625,3.624-3.623  c0-1.359-0.762-2.533-1.874-3.153V22.783c0-0.967-0.783-1.75-1.75-1.75c-0.966,0-1.75,0.783-1.75,1.75v10.439  c-1.111,0.62-1.873,1.793-1.873,3.153C32.952,38.373,34.578,39.998,36.575,39.998z M63.424,39.998c1.998,0,3.623-1.625,3.623-3.623  c0-1.359-0.762-2.533-1.873-3.153V22.783c0-0.967-0.783-1.75-1.75-1.75s-1.75,0.783-1.75,1.75v10.439  c-1.111,0.62-1.873,1.793-1.873,3.153C59.801,38.373,61.427,39.998,63.424,39.998z"/><text x="0" y="115" fill="#000000" font-size="5px" font-weight="bold" font-family="'Helvetica Neue', Helvetica, Arial-Unicode, Arial, Sans-serif">Created by Kidiladon</text><text x="0" y="120" fill="#000000" font-size="5px" font-weight="bold" font-family="'Helvetica Neue', Helvetica, Arial-Unicode, Arial, Sans-serif">from the Noun Project</text></svg>