<svg xmlns="http://www.w3.org/2000/svg" xmlns:xlink="http://www.w3.org/1999/xlink" version="1.1" x="0px" y="0px" viewBox="10 20 80 70" style="enable-background:new 0 0 80 80;" xml:space="preserve"><path d="M77,55.1c0,0.4-0.3,0.7-0.8,0.7h-8.8c-0.1,4.9-1.2,9.5-3,13.3l2.7-1.8c0.3-0.2,0.6-0.2,0.8,0l6.4,4.2c0.3,0.2,0.4,0.7,0.2,1  c-0.2,0.3-0.7,0.4-1,0.2l-6-4l-4.7,3.1c-3.1,4.8-7.4,7.8-12.3,8.1V45.1H66c0.9,2.8,1.4,6,1.4,9.2h8.8C76.7,54.3,77,54.7,77,55.1z   M32.5,54.3h-8.8c-0.4,0-0.8,0.3-0.8,0.7s0.3,0.7,0.8,0.7h8.8c0.1,4.9,1.2,9.5,3,13.3l-2.7-1.8c-0.3-0.2-0.6-0.2-0.8,0l-6.4,4.2  c-0.3,0.2-0.4,0.7-0.2,1c0.2,0.3,0.7,0.4,1,0.2l6-4l4.7,3.1c3.1,4.8,7.4,7.8,12.3,8.1V45.1H34C33.1,47.9,32.6,51,32.5,54.3z   M61.7,43.8h3.7h0.2c0,0,0-0.1,0-0.1l6.5-2.9c0.4-0.2,0.6-0.6,0.4-1c-0.2-0.4-0.6-0.5-1-0.4l-6.4,2.8c-1.8-4.4-4.5-7.9-7.8-10  l6.5-11.2c0.2-0.4,0.1-0.8-0.3-1c-0.4-0.2-0.8-0.1-1,0.3L56,31.6c-1.9-1-3.9-1.5-6-1.5c-2.1,0-4.1,0.5-6,1.5l-6.5-11.2  c-0.2-0.4-0.7-0.5-1-0.3c-0.4,0.2-0.5,0.7-0.3,1l6.5,11.2c-3.3,2.1-6,5.6-7.8,10l-6.4-2.8c-0.4-0.2-0.8,0-1,0.4  c-0.2,0.4,0,0.8,0.4,1l6.5,2.9c0,0,0,0.1,0,0.1h0.2h3.7h11.1h1.3H61.7z"/></svg>