<?xml version="1.0" encoding="utf-8"?>
<!-- Generator: Adobe Illustrator 21.1.0, SVG Export Plug-In . SVG Version: 6.00 Build 0)  -->
<svg version="1.1" id="Layer_1" xmlns="http://www.w3.org/2000/svg" xmlns:xlink="http://www.w3.org/1999/xlink" x="0px" y="0px"
	 viewBox="0 0 100 120.3" style="enable-background:new 0 0 100 120.3;" xml:space="preserve">
<style type="text/css">
	.st0{fill:#85BA80;}
</style>
<g>
	<path class="st0" d="M81.8,50.5c-1-1.6-2.7-2.5-4.5-2.5c-0.8,0-1.6,0.3-2.3,0.7c-2.4,1.4-3.2,4.5-1.8,6.9c0,0,13,22.5,13.2,22.8
		c1.3,2.3-0.5,5.2-3.1,5.2c-8.8,0-10.6,0-17.6,0l2.5-4.1c1-1.6,1-3.6,0.1-5.2c-0.4-0.7-1-1.3-1.7-1.7c-2.3-1.5-5.4-0.8-6.9,1.6
		l-7.3,11.7c0,0,0,0,0,0.1c0,0,0,0,0,0.1c0,0,0,0.1-0.1,0.1c-0.1,0.1-0.1,0.3-0.2,0.4c0,0.1,0,0.1-0.1,0.2c-0.1,0.2-0.1,0.4-0.2,0.5
		c0,0,0,0,0,0c-0.1,0.2-0.1,0.4-0.1,0.6c0,0,0,0.1,0,0.1c0,0.2,0,0.3,0,0.5c0,0,0,0.1,0,0.1c0,0.2,0,0.4,0,0.6c0,0,0,0,0,0
		c0,0.2,0.1,0.4,0.1,0.6c0,0.1,0,0.1,0,0.2c0,0.2,0.1,0.3,0.1,0.4c0,0.1,0,0.1,0.1,0.1c0.1,0.2,0.2,0.4,0.3,0.5c0,0,0,0,0,0l7,12.1
		c1.4,2.4,4.4,3.2,6.8,1.8c2.4-1.4,3.2-4.4,1.8-6.8l-2.6-4.5c8,0,15.1,0,17.9,0c10.7,0,16.9-11.2,11.7-20.4L81.8,50.5z"/>
	<path class="st0" d="M45.1,93.8c1.9,0,3.5-1.1,4.4-2.7c0.4-0.7,0.6-1.5,0.6-2.4c0-2.8-2.3-5-5-5c0,0-26,0-26.4,0
		c-2.7,0-4.3-3-2.9-5.2c4.4-7.6,5.3-9.2,8.8-15.2l2.3,4.2c0.9,1.7,2.6,2.7,4.4,2.7c0.8,0,1.6-0.2,2.4-0.6c2.4-1.3,3.4-4.3,2.1-6.8
		l-6.5-12.1c0,0,0,0,0-0.1c0,0,0,0,0-0.1c0,0,0-0.1-0.1-0.1c-0.1-0.1-0.2-0.3-0.3-0.4c0,0-0.1-0.1-0.1-0.1c-0.1-0.2-0.2-0.3-0.4-0.4
		c0,0,0,0,0,0c-0.1-0.1-0.3-0.3-0.5-0.4c0,0-0.1,0-0.1-0.1c-0.1-0.1-0.3-0.2-0.4-0.3c0,0-0.1-0.1-0.1-0.1c-0.2-0.1-0.3-0.2-0.5-0.3
		c0,0,0,0,0,0c-0.2-0.1-0.4-0.1-0.6-0.2c-0.1,0-0.1,0-0.2,0c-0.2,0-0.3-0.1-0.5-0.1c0,0-0.1,0-0.1,0c-0.2,0-0.4,0-0.6,0c0,0,0,0,0,0
		h-14c-2.8,0-5,2.2-5,5s2.2,5,5,5H16c-4,7-7.6,13.1-8.9,15.5c-5.3,9.3,1.2,20.3,11.8,20.3L45.1,93.8z"/>
	<path class="st0" d="M26.2,40.3c-0.9,1.7-0.8,3.6,0.1,5.1c0.4,0.7,1,1.3,1.7,1.7c2.4,1.4,5.5,0.5,6.8-1.9c0,0,13-22.5,13.1-22.8
		c1.4-2.3,4.7-2.2,6,0.1c4.4,7.6,5.3,9.2,8.8,15.2l-4.8-0.2c-1.9-0.1-3.6,1-4.5,2.5c-0.4,0.7-0.6,1.5-0.7,2.3
		c-0.1,2.8,2.1,5.1,4.8,5.2l13.7,0.5c0,0,0.1,0,0.1,0c0,0,0,0,0.1,0c0,0,0.1,0,0.1,0c0.2,0,0.3,0,0.5,0c0.1,0,0.1,0,0.2,0
		c0.2,0,0.4-0.1,0.6-0.1c0,0,0,0,0,0c0.2-0.1,0.4-0.1,0.6-0.2c0,0,0.1,0,0.1,0c0.1-0.1,0.3-0.1,0.4-0.2c0,0,0.1-0.1,0.1-0.1
		c0.2-0.1,0.3-0.2,0.5-0.3c0,0,0,0,0,0c0.2-0.1,0.3-0.3,0.4-0.4c0,0,0.1-0.1,0.1-0.1c0.1-0.1,0.2-0.2,0.3-0.3c0,0,0.1-0.1,0.1-0.1
		c0.1-0.2,0.2-0.3,0.3-0.5l0,0l7-12.1c1.4-2.4,0.6-5.5-1.8-6.8c-2.4-1.4-5.5-0.6-6.8,1.8L71.7,33c-4-7-7.5-13.1-8.9-15.5
		c-5.3-9.3-18.2-9.1-23.5,0.1L26.2,40.3z"/>
</g>
</svg>
