<?xml version="1.0" encoding="utf-8"?>
<!-- Generator: Adobe Illustrator 21.1.0, SVG Export Plug-In . SVG Version: 6.00 Build 0)  -->
<svg version="1.1" id="Layer_1" xmlns="http://www.w3.org/2000/svg" xmlns:xlink="http://www.w3.org/1999/xlink" x="0px" y="0px"
	 viewBox="0 0 38 38" style="enable-background:new 0 0 38 38;" xml:space="preserve">
<style type="text/css">
	.st0{fill:#FFFFFF;}
</style>
<g>
	<path class="st0" d="M9.9,9.3h11.4c0.6,0,1,0.5,1,1.1l0,0c0,0.6-0.4,1-1,1H9.9c-0.6,0-1.1-0.4-1.1-1l0,0C8.8,9.8,9.3,9.3,9.9,9.3z
		 M6.3,4h20c1.3,0,2.5,1.1,2.5,2.5v12.6H23v-1.8c0.5-0.1,1-0.5,1-1.1l0,0c0-0.6-0.5-1-1.1-1h-13c-0.6,0-1.1,0.4-1.1,1l0,0
		c0,0.6,0.5,1.1,1.1,1.1h9.6l-4.1,3.8H9.9c-0.6,0-1.1,0.5-1.1,1.1l0,0c0,0.6,0.5,1,1.1,1h3.3c-0.3,0.5-0.2,1.2,0.3,1.5l7.4,7
		c0.3,0.2,0.6,0.4,1,0.4c0.6,0,1.2-0.6,1.2-1.3v-2.3h5.8v3.5c0,1.3-1.2,2.4-2.5,2.4h-20c-1.4,0-2.5-1.1-2.5-2.4V6.5
		C3.8,5.1,4.9,4,6.3,4z M14.2,23.9l3.8-3.5l3.8-3.5v3.6h9.8c1.9,0,3.4,1.5,3.4,3.5v1.6v1.9v5.8c0,0.7-0.5,1.2-1.2,1.2l0,0
		c-0.7,0-1.2-0.5-1.2-1.2v-4.2c0-0.7-0.8-1.5-1.5-1.5h-9.3v3.5L18,27.4L14.2,23.9z"/>
</g>
</svg>
