<?xml version="1.0" encoding="utf-8"?>
<!-- Generator: Adobe Illustrator 21.1.0, SVG Export Plug-In . SVG Version: 6.00 Build 0)  -->
<svg version="1.1" id="Layer_1" xmlns="http://www.w3.org/2000/svg" xmlns:xlink="http://www.w3.org/1999/xlink" x="0px" y="0px"
	 viewBox="0 0 38 38" style="enable-background:new 0 0 38 38;" xml:space="preserve">
<style type="text/css">
	.st0{fill:#FFFFFF;}
</style>
<path class="st0" d="M33.6,3.1H8.5c-1.7,0-3,1.4-3,3v11.8c0.2,0,0.5,0.1,0.7,0.2c0.5-1.1,1.5-1.9,2.6-2.1v-4.9h24.5v17h-12
	c-0.1,1.3-0.9,2.4-2.1,2.9c0.1,0.1,0.1,0.3,0.1,0.4h14.3c1.7,0,3-1.4,3-3c0,0,0,0,0,0V6.1C36.6,4.4,35.2,3.1,33.6,3.1z M24.6,8.6
	c-0.7,0-1.3-0.6-1.3-1.3s0.6-1.3,1.3-1.3c0.7,0,1.3,0.6,1.3,1.3v0C25.9,8,25.3,8.6,24.6,8.6z M28.3,8.6c-0.7,0-1.3-0.6-1.3-1.3
	c0-0.7,0.6-1.3,1.3-1.3c0.7,0,1.3,0.6,1.3,1.3v0C29.6,8,29,8.6,28.3,8.6z M32.1,8.6c-0.7,0-1.3-0.6-1.3-1.3s0.6-1.3,1.3-1.3
	c0.7,0,1.3,0.6,1.3,1.3c0,0,0,0,0,0C33.3,8,32.8,8.6,32.1,8.6z M19.1,17.2h-1c-0.4,0-0.8,0.3-0.8,0.7l-0.2,0.9
	c-0.1,0.4,0.1,0.8,0.5,0.9l0.9,0.4c0.1,0.6,0.3,1.2,0.6,1.7l-0.5,0.8c-0.2,0.3-0.1,0.8,0.2,1.1l0.7,0.6c0.3,0.3,0.8,0.3,1.1,0
	l0.8-0.6c0.6,0.2,1.2,0.4,1.8,0.4l0.5,0.9c0.2,0.3,0.6,0.5,1,0.4l0.9-0.3c0.4-0.1,0.6-0.5,0.5-0.9l-0.2-1c0.5-0.4,0.9-0.9,1.2-1.4h1
	c0.4,0,0.8-0.3,0.8-0.7l0.2-0.9c0.1-0.4-0.1-0.8-0.5-0.9l-0.9-0.4c-0.1-0.6-0.3-1.2-0.6-1.7l0.5-0.8c0.2-0.3,0.1-0.8-0.2-1.1
	l-0.7-0.6c-0.3-0.3-0.8-0.3-1.1,0l-0.8,0.6c-0.6-0.2-1.2-0.4-1.8-0.4L22.6,14c-0.2-0.3-0.6-0.5-1-0.4L20.7,14
	c-0.4,0.1-0.6,0.5-0.5,0.9l0.2,1C19.8,16.2,19.4,16.7,19.1,17.2L19.1,17.2z M21.4,19.2c0.2-0.9,1.1-1.6,2-1.4c0.9,0.2,1.6,1.1,1.4,2
	c-0.2,0.9-1.1,1.6-2,1.4c0,0,0,0,0,0C21.8,21,21.2,20.1,21.4,19.2z M2.1,28.7l1.5,0.2c0.2,0.6,0.4,1.1,0.7,1.6l-0.9,1.2
	C3,32.1,3.1,32.7,3.4,33l0.8,0.8c0.4,0.3,0.9,0.4,1.3,0.1L6.7,33c0.5,0.3,1.1,0.5,1.6,0.7l0.2,1.5C8.6,35.6,9,36,9.5,36l0,0h1.1
	c0.5,0,0.9-0.4,1-0.9l0.2-1.5c0.6-0.2,1.1-0.4,1.6-0.7l1.2,0.9c0.4,0.3,0.9,0.3,1.3-0.1l0.8-0.8c0.3-0.3,0.4-0.9,0.1-1.3l-0.9-1.2
	c0.3-0.5,0.5-1.1,0.7-1.6l1.5-0.2c0.5-0.1,0.8-0.5,0.8-1v-1.1c0-0.5-0.4-0.9-0.9-1l-1.5-0.2c-0.2-0.6-0.4-1.1-0.7-1.6l0.9-1.2
	c0.3-0.4,0.3-0.9-0.1-1.3l-0.8-0.8c-0.4-0.3-0.9-0.4-1.3-0.1l-1.2,0.9c-0.5-0.3-1.1-0.5-1.6-0.7l-0.2-1.5c-0.1-0.5-0.5-0.8-1-0.8
	l0,0H9.4c-0.5,0-0.9,0.4-1,0.9l-0.2,1.5c-0.6,0.2-1.1,0.4-1.6,0.7l-1.2-0.9c-0.4-0.3-0.9-0.2-1.3,0.1l-0.8,0.8
	C3,21.7,3,22.3,3.3,22.7l0.9,1.2c-0.3,0.5-0.5,1.1-0.7,1.6L2,25.7c-0.5,0.1-0.8,0.5-0.8,1v1.1C1.2,28.3,1.6,28.7,2.1,28.7z M10,24.9
	L10,24.9c1.2,0,2.3,1,2.3,2.3c0,1.2-1,2.2-2.3,2.3l0,0c-1.2,0-2.3-1-2.3-2.3C7.7,25.9,8.7,24.9,10,24.9z"/>
</svg>
