<?xml version="1.0" encoding="utf-8"?>
<!-- Generator: Adobe Illustrator 21.1.0, SVG Export Plug-In . SVG Version: 6.00 Build 0)  -->
<svg version="1.1" id="Layer_1" xmlns="http://www.w3.org/2000/svg" xmlns:xlink="http://www.w3.org/1999/xlink" x="0px" y="0px"
	 viewBox="0 0 54 54" style="enable-background:new 0 0 54 54;" xml:space="preserve">
<style type="text/css">
	.st0{fill:#85BA80;}
</style>
<g>
	<g>
		<path class="st0" d="M24.1,19.4h5.8l0,0c0.3,0,0.6-0.3,0.6-0.6l0,0c0-1.9-1.6-3.4-3.4-3.4c-1.9,0-3.4,1.5-3.4,3.4
			C23.6,19.1,23.8,19.4,24.1,19.4L24.1,19.4z M27,16.5c1.1,0,2,0.7,2.2,1.7h-4.5C25,17.2,25.9,16.5,27,16.5L27,16.5z"/>
		<path class="st0" d="M34.5,23.8h-2.7v-2.9l2.1-2.1c0.2-0.2,0.2-0.6,0-0.8c-0.2-0.2-0.6-0.2-0.8,0L31,20.1h-8L20.9,18
			c-0.2-0.2-0.6-0.2-0.8,0c-0.2,0.2-0.2,0.6,0,0.8l2.1,2.1v2.9h-2.7c-0.3,0-0.6,0.3-0.6,0.6c0,0.3,0.3,0.6,0.6,0.6h2.7
			c0,1,0.3,1.9,0.8,2.6l-2.7,2.7c-0.2,0.2-0.2,0.6,0,0.8c0.1,0.1,0.3,0.2,0.4,0.2s0.3-0.1,0.4-0.2l2.6-2.6c0.9,0.8,2,1.3,3.2,1.3
			s2.4-0.5,3.2-1.3l2.6,2.6c0.1,0.1,0.3,0.2,0.4,0.2c0.1,0,0.3-0.1,0.4-0.2c0.2-0.2,0.2-0.6,0-0.8L31,27.6c0.5-0.8,0.8-1.7,0.8-2.6
			h2.7c0.3,0,0.6-0.3,0.6-0.6C35.1,24.1,34.8,23.8,34.5,23.8L34.5,23.8z M23.4,24.9v-3.6h3.1v7.2C24.7,28.3,23.4,26.7,23.4,24.9
			L23.4,24.9z M27.6,28.5v-7.2h3.1v3.6C30.7,26.7,29.3,28.3,27.6,28.5L27.6,28.5z"/>
	</g>
	<g>
		<g>
			<g>
				<path class="st0" d="M44.9,39.3H9.1c-2.1,0-3.9-1.7-3.9-3.9V12.7C5.3,10.6,7,8.9,9.1,8.9h35.7c2.1,0,3.9,1.7,3.9,3.9v22.7
					C48.7,37.7,47,39.3,44.9,39.3z M9.1,10.2c-1.4,0-2.5,1.1-2.5,2.5v22.7c0,1.4,1.1,2.5,2.5,2.5h35.7c1.4,0,2.5-1.1,2.5-2.5V12.7
					c0-1.4-1.1-2.5-2.5-2.5H9.1z"/>
				<path class="st0" d="M44.8,39.3H9.2c-2.2,0-4-1.8-4-4v-2.4c0-0.4,0.3-0.7,0.7-0.7H48c0.4,0,0.7,0.3,0.7,0.7v2.4
					C48.7,37.5,46.9,39.3,44.8,39.3z M6.6,33.7v1.7c0,1.4,1.2,2.6,2.6,2.6h35.5c1.4,0,2.6-1.2,2.6-2.6v-1.7H6.6z"/>
				<path class="st0" d="M26.3,38.8L26.3,38.8v4.8H15.2c-0.4,0-0.7,0.3-0.7,0.7s0.3,0.7,0.7,0.7h23.7c0.4,0,0.7-0.3,0.7-0.7
					s-0.3-0.7-0.7-0.7H27.7v-4.8H26.3"/>
			</g>
			<path class="st0" d="M24.7,35.9c0-0.4,0.4-0.8,0.8-0.8h3c0.5,0,0.8,0.3,0.8,0.8c0,0.4-0.4,0.8-0.8,0.8h-3
				C25,36.7,24.7,36.3,24.7,35.9L24.7,35.9z"/>
			<path class="st0" d="M8.6,11.5c0,0.4,0.3,0.7,0.7,0.7h1.5c0.4,0,0.7-0.3,0.7-0.7s-0.3-0.7-0.7-0.7H9.3
				C8.9,10.8,8.6,11.1,8.6,11.5L8.6,11.5z"/>
			<path class="st0" d="M37.7,11.5c0,0.4,0.3,0.7,0.7,0.7H40c0.4,0,0.7-0.3,0.7-0.7s-0.3-0.7-0.7-0.7h-1.5
				C38.1,10.8,37.7,11.1,37.7,11.5L37.7,11.5z"/>
			<path class="st0" d="M42.1,11.5c0,0.4,0.3,0.7,0.7,0.7h1.5c0.4,0,0.7-0.3,0.7-0.7s-0.3-0.7-0.7-0.7h-1.5
				C42.4,10.8,42.1,11.1,42.1,11.5L42.1,11.5z"/>
			<path class="st0" d="M5.9,13.5c0,0.4,0.3,0.7,0.7,0.7h40.8c0.4,0,0.7-0.3,0.7-0.7s-0.3-0.7-0.7-0.7H6.6
				C6.2,12.8,5.9,13.2,5.9,13.5L5.9,13.5z"/>
		</g>
		<path class="st0" d="M33.2,28.3"/>
		<path class="st0" d="M29.6,18.1"/>
	</g>
	<path class="st0" d="M25.5,23.2c0,0.4,0.3,0.7,0.7,0.7h1.5c0.4,0,0.7-0.3,0.7-0.7c0-0.4-0.3-0.7-0.7-0.7h-1.5
		C25.8,22.5,25.5,22.8,25.5,23.2L25.5,23.2z"/>
	<path class="st0" d="M27,17.8c0.4,0,0.7-0.3,0.7-0.7v-1.5c0-0.4-0.3-0.7-0.7-0.7s-0.7,0.3-0.7,0.7v1.5C26.3,17.5,26.6,17.8,27,17.8
		L27,17.8z"/>
</g>
</svg>
