<?xml version="1.0" encoding="utf-8"?>
<!-- Generator: Adobe Illustrator 21.1.0, SVG Export Plug-In . SVG Version: 6.00 Build 0)  -->
<svg version="1.1" id="Layer_1" xmlns="http://www.w3.org/2000/svg" xmlns:xlink="http://www.w3.org/1999/xlink" x="0px" y="0px"
	 viewBox="0 0 100 100" style="enable-background:new 0 0 100 100;" xml:space="preserve">
<style type="text/css">
	.st0{fill:#85BA80;}
</style>
<g>
	<g>
		<path class="st0" d="M40.4,43.1c0,0.2,0,0.4,0,0.6c0,0.2,0,0.4,0,0.5c0.3,2.2,0.7,4.3,1.2,6.4c-6.7,2.7-13.1,6.2-19,10.5
			c-1.6,1.2-4,0.9-5.2-0.8c-1.2-1.7-0.9-4,0.8-5.2C25,50.2,32.5,46.1,40.4,43.1z"/>
	</g>
	<g>
		<path class="st0" d="M49,48.1c-0.4-1.5-0.6-3-0.8-4.5c0.1-1.7,0.2-3.4,0.4-5.1l-0.7-0.1c-0.2,1.7-0.4,3.5-0.4,5.2
			c0.5,4.1,1.6,8.1,3.2,11.9c0.7,1.6-0.1,3.5-1.7,4.2c-1.6,0.7-3.5-0.1-4.2-1.7c-1.8-4.4-3.1-9.1-3.7-13.8c0-0.2,0-0.3,0-0.5
			c0.1-4.1,0.6-8.1,1.6-12c0.4-1.4,1.6-2.4,3.1-2.4h9.1c1.4,0,2.7,1,3.1,2.4c1,3.9,1.5,8,1.6,12c0,0.2,0,0.3,0,0.5
			c-0.6,4.7-1.8,9.4-3.6,13.8c-0.1,0.3-0.3,0.6-0.5,0.9c-1.2,1.3-3.2,1.5-4.5,0.3c0.9-1.1,1.1-2.6,0.5-3.9c-0.2-0.5-0.4-1.1-0.6-1.6
			c1.2-3.2,2-6.6,2.4-10.1c0-1.7-0.2-3.5-0.4-5.2L52,38.5c0.2,1.7,0.4,3.4,0.4,5.1c-0.2,1.5-0.5,2.9-0.8,4.5
			c-0.4-0.2-0.9-0.3-1.3-0.4C49.8,47.8,49.4,47.9,49,48.1z"/>
	</g>
	<g>
		<path class="st0" d="M57.8,20.6c0-4.2-3.4-7.5-7.5-7.5c-4.2,0-7.5,3.3-7.5,7.5s3.4,7.5,7.5,7.5C54.4,28.1,57.8,24.8,57.8,20.6
			L57.8,20.6z"/>
	</g>
	<g>
		<path class="st0" d="M82.4,55.2c1.6,1.2,2,3.5,0.8,5.2c-1.2,1.6-3.6,2-5.2,0.8c-5.8-4.3-12.2-7.8-19-10.5c0.5-2.1,0.9-4.2,1.2-6.4
			c0-0.2,0-0.3,0-0.5c0-0.2,0-0.4,0-0.6C68.1,46.1,75.6,50.2,82.4,55.2z"/>
	</g>
</g>
</svg>
